<svg xmlns="http://www.w3.org/2000/svg" xmlns:xlink="http://www.w3.org/1999/xlink" width="1440" zoomAndPan="magnify" viewBox="0 0 1080 1079.999946" height="1440" preserveAspectRatio="xMidYMid meet" version="1.0"><defs><clipPath id="b368443c16"><path d="M 522.402344 644.480469 L 539.652344 644.480469 L 539.652344 662.480469 L 522.402344 662.480469 Z M 522.402344 644.480469 " clip-rule="nonzero"/></clipPath><clipPath id="18aa796061"><path d="M 230.167969 299.171875 L 832.417969 299.171875 L 832.417969 460 L 230.167969 460 Z M 230.167969 299.171875 " clip-rule="nonzero"/></clipPath><clipPath id="7c96f27883"><path d="M 230.167969 620 L 832.417969 620 L 832.417969 780.671875 L 230.167969 780.671875 Z M 230.167969 620 " clip-rule="nonzero"/></clipPath><clipPath id="151099e49c"><path d="M 230.167969 459 L 832.417969 459 L 832.417969 621 L 230.167969 621 Z M 230.167969 459 " clip-rule="nonzero"/></clipPath></defs><g clip-path="url(#b368443c16)"><path fill="#aae3e3" d="M 539.632812 661.167969 L 535.289062 656.992188 C 536.578125 655.609375 537.285156 653.820312 537.285156 651.917969 C 537.285156 650.019531 536.511719 648.0625 535.105469 646.660156 C 533.703125 645.253906 531.835938 644.480469 529.847656 644.480469 C 527.863281 644.480469 525.992188 645.253906 524.589844 646.660156 C 523.183594 648.0625 522.410156 649.933594 522.410156 651.917969 C 522.410156 653.90625 523.183594 655.773438 524.589844 657.175781 C 525.992188 658.582031 527.863281 659.355469 529.847656 659.355469 C 531.347656 659.355469 532.777344 658.917969 533.992188 658.097656 L 538.457031 662.386719 C 538.617188 662.539062 538.824219 662.625 539.046875 662.625 C 539.265625 662.625 539.5 662.53125 539.65625 662.363281 C 539.980469 662.027344 539.972656 661.488281 539.632812 661.164062 Z M 533.117188 656.800781 C 532.179688 657.429688 531.058594 657.792969 529.847656 657.792969 C 526.601562 657.792969 523.972656 655.164062 523.972656 651.917969 C 523.972656 648.675781 526.601562 646.042969 529.847656 646.042969 C 533.09375 646.042969 535.722656 648.675781 535.722656 651.917969 C 535.722656 653.527344 535.074219 654.984375 534.027344 656.046875 C 533.75 656.328125 533.445312 656.582031 533.113281 656.800781 Z M 533.117188 656.800781 " fill-opacity="1" fill-rule="nonzero"/></g><g clip-path="url(#18aa796061)"><path fill="#288181" d="M 812.164062 359.382812 L 448.074219 359.382812 C 447.53125 357.246094 446.902344 355.140625 446.183594 353.058594 C 445.46875 350.980469 444.667969 348.929688 443.78125 346.917969 C 442.894531 344.902344 441.925781 342.925781 440.875 340.992188 C 439.828125 339.058594 438.699219 337.171875 437.496094 335.328125 C 436.289062 333.488281 435.007812 331.699219 433.65625 329.964844 C 432.304688 328.226562 430.878906 326.550781 429.386719 324.933594 C 427.898438 323.3125 426.339844 321.761719 424.71875 320.269531 C 423.101562 318.78125 421.421875 317.359375 419.683594 316.011719 C 417.945312 314.660156 416.15625 313.382812 414.3125 312.179688 C 412.46875 310.976562 410.578125 309.851562 408.644531 308.804688 C 406.707031 307.757812 404.730469 306.792969 402.714844 305.910156 C 400.699219 305.027344 398.648438 304.230469 396.570312 303.515625 C 394.488281 302.800781 392.378906 302.171875 390.246094 301.632812 C 388.109375 301.09375 385.957031 300.644531 383.789062 300.28125 C 381.617188 299.917969 379.433594 299.648438 377.242188 299.464844 C 375.046875 299.285156 372.851562 299.195312 370.648438 299.195312 C 368.449219 299.195312 366.25 299.285156 364.058594 299.464844 C 361.863281 299.648438 359.683594 299.917969 357.511719 300.28125 C 355.339844 300.644531 353.1875 301.09375 351.054688 301.632812 C 348.921875 302.171875 346.8125 302.800781 344.730469 303.515625 C 342.648438 304.230469 340.601562 305.027344 338.585938 305.910156 C 336.570312 306.792969 334.59375 307.757812 332.65625 308.804688 C 330.71875 309.851562 328.832031 310.976562 326.988281 312.179688 C 325.144531 313.382812 323.355469 314.660156 321.617188 316.011719 C 319.878906 317.359375 318.199219 318.78125 316.578125 320.269531 C 314.957031 321.761719 313.402344 323.3125 311.910156 324.933594 C 310.417969 326.550781 308.996094 328.226562 307.644531 329.964844 C 306.289062 331.699219 305.011719 333.488281 303.804688 335.328125 C 302.601562 337.171875 301.472656 339.058594 300.421875 340.992188 C 299.375 342.925781 298.40625 344.902344 297.519531 346.917969 C 296.632812 348.929688 295.832031 350.980469 295.113281 353.058594 C 294.398438 355.140625 293.765625 357.246094 293.222656 359.382812 L 250.238281 359.382812 C 249.578125 359.382812 248.925781 359.414062 248.269531 359.476562 C 247.617188 359.542969 246.964844 359.636719 246.320312 359.765625 C 245.675781 359.894531 245.039062 360.054688 244.410156 360.246094 C 243.78125 360.4375 243.164062 360.65625 242.558594 360.910156 C 241.949219 361.160156 241.355469 361.441406 240.777344 361.75 C 240.199219 362.058594 239.632812 362.398438 239.085938 362.761719 C 238.542969 363.128906 238.015625 363.519531 237.503906 363.9375 C 236.996094 364.351562 236.511719 364.792969 236.046875 365.257812 C 235.582031 365.722656 235.140625 366.210938 234.722656 366.71875 C 234.308594 367.226562 233.914062 367.753906 233.550781 368.300781 C 233.1875 368.847656 232.847656 369.410156 232.539062 369.988281 C 232.226562 370.570312 231.949219 371.164062 231.695312 371.769531 C 231.445312 372.375 231.222656 372.996094 231.03125 373.625 C 230.84375 374.253906 230.683594 374.890625 230.554688 375.535156 C 230.425781 376.179688 230.328125 376.828125 230.265625 377.484375 C 230.199219 378.136719 230.167969 378.792969 230.167969 379.449219 C 230.167969 380.105469 230.199219 380.761719 230.265625 381.417969 C 230.328125 382.070312 230.425781 382.71875 230.554688 383.363281 C 230.683594 384.007812 230.84375 384.644531 231.03125 385.273438 C 231.222656 385.902344 231.445312 386.523438 231.695312 387.128906 C 231.949219 387.738281 232.226562 388.332031 232.539062 388.910156 C 232.847656 389.488281 233.1875 390.054688 233.550781 390.597656 C 233.914062 391.144531 234.308594 391.671875 234.722656 392.179688 C 235.140625 392.6875 235.582031 393.175781 236.046875 393.640625 C 236.511719 394.105469 236.996094 394.546875 237.503906 394.964844 C 238.015625 395.378906 238.542969 395.769531 239.085938 396.136719 C 239.632812 396.5 240.199219 396.839844 240.777344 397.148438 C 241.355469 397.457031 241.949219 397.738281 242.558594 397.992188 C 243.164062 398.242188 243.78125 398.464844 244.410156 398.652344 C 245.039062 398.84375 245.675781 399.003906 246.320312 399.132812 C 246.964844 399.261719 247.617188 399.355469 248.269531 399.421875 C 248.925781 399.484375 249.578125 399.519531 250.238281 399.519531 L 293.222656 399.519531 C 293.765625 401.652344 294.398438 403.757812 295.113281 405.839844 C 295.832031 407.921875 296.632812 409.96875 297.519531 411.980469 C 298.40625 413.996094 299.375 415.972656 300.421875 417.90625 C 301.472656 419.839844 302.601562 421.730469 303.804688 423.570312 C 305.011719 425.410156 306.289062 427.199219 307.644531 428.9375 C 308.996094 430.671875 310.417969 432.347656 311.910156 433.96875 C 313.402344 435.585938 314.957031 437.140625 316.578125 438.628906 C 318.199219 440.117188 319.878906 441.539062 321.617188 442.890625 C 323.355469 444.238281 325.144531 445.515625 326.988281 446.71875 C 328.832031 447.921875 330.71875 449.046875 332.65625 450.09375 C 334.59375 451.140625 336.570312 452.105469 338.585938 452.988281 C 340.601562 453.871094 342.648438 454.671875 344.730469 455.386719 C 346.8125 456.097656 348.921875 456.726562 351.054688 457.265625 C 353.1875 457.804688 355.339844 458.257812 357.511719 458.617188 C 359.683594 458.980469 361.863281 459.25 364.058594 459.433594 C 366.25 459.613281 368.449219 459.707031 370.648438 459.707031 C 372.851562 459.707031 375.046875 459.613281 377.242188 459.433594 C 379.433594 459.25 381.617188 458.980469 383.789062 458.617188 C 385.957031 458.257812 388.109375 457.804688 390.246094 457.265625 C 392.378906 456.726562 394.488281 456.097656 396.570312 455.386719 C 398.648438 454.671875 400.699219 453.871094 402.714844 452.988281 C 404.730469 452.105469 406.707031 451.140625 408.644531 450.09375 C 410.578125 449.046875 412.46875 447.921875 414.3125 446.71875 C 416.15625 445.515625 417.945312 444.238281 419.683594 442.890625 C 421.421875 441.539062 423.101562 440.117188 424.71875 438.628906 C 426.339844 437.140625 427.898438 435.585938 429.386719 433.96875 C 430.878906 432.347656 432.304688 430.671875 433.65625 428.9375 C 435.007812 427.199219 436.289062 425.410156 437.496094 423.570312 C 438.699219 421.730469 439.828125 419.839844 440.875 417.90625 C 441.925781 415.972656 442.894531 413.996094 443.78125 411.980469 C 444.667969 409.96875 445.46875 407.921875 446.183594 405.839844 C 446.902344 403.757812 447.53125 401.652344 448.074219 399.519531 L 812.164062 399.519531 C 812.820312 399.519531 813.476562 399.484375 814.128906 399.421875 C 814.785156 399.355469 815.433594 399.261719 816.078125 399.132812 C 816.722656 399.003906 817.359375 398.84375 817.988281 398.652344 C 818.617188 398.464844 819.234375 398.242188 819.84375 397.992188 C 820.449219 397.738281 821.042969 397.457031 821.621094 397.148438 C 822.203125 396.839844 822.765625 396.5 823.3125 396.136719 C 823.859375 395.769531 824.386719 395.378906 824.894531 394.964844 C 825.402344 394.546875 825.886719 394.105469 826.351562 393.640625 C 826.816406 393.175781 827.257812 392.6875 827.675781 392.179688 C 828.09375 391.671875 828.484375 391.144531 828.847656 390.597656 C 829.214844 390.054688 829.550781 389.488281 829.859375 388.910156 C 830.171875 388.332031 830.453125 387.738281 830.703125 387.128906 C 830.953125 386.523438 831.175781 385.902344 831.367188 385.273438 C 831.558594 384.644531 831.71875 384.007812 831.84375 383.363281 C 831.972656 382.71875 832.070312 382.070312 832.132812 381.417969 C 832.199219 380.761719 832.230469 380.105469 832.230469 379.449219 C 832.230469 378.792969 832.199219 378.136719 832.132812 377.484375 C 832.070312 376.828125 831.972656 376.179688 831.84375 375.535156 C 831.71875 374.890625 831.558594 374.253906 831.367188 373.625 C 831.175781 372.996094 830.953125 372.375 830.703125 371.769531 C 830.453125 371.164062 830.171875 370.570312 829.859375 369.988281 C 829.550781 369.410156 829.214844 368.847656 828.847656 368.300781 C 828.484375 367.753906 828.09375 367.226562 827.675781 366.71875 C 827.257812 366.210938 826.816406 365.722656 826.351562 365.257812 C 825.886719 364.792969 825.402344 364.351562 824.894531 363.9375 C 824.386719 363.519531 823.859375 363.128906 823.3125 362.761719 C 822.765625 362.398438 822.203125 362.058594 821.621094 361.75 C 821.042969 361.441406 820.449219 361.160156 819.84375 360.910156 C 819.234375 360.65625 818.617188 360.4375 817.988281 360.246094 C 817.359375 360.054688 816.722656 359.894531 816.078125 359.765625 C 815.433594 359.636719 814.785156 359.542969 814.128906 359.476562 C 813.476562 359.414062 812.820312 359.382812 812.164062 359.382812 Z M 370.648438 419.585938 C 369.335938 419.585938 368.023438 419.523438 366.714844 419.394531 C 365.40625 419.265625 364.109375 419.074219 362.820312 418.816406 C 361.53125 418.558594 360.257812 418.242188 359 417.859375 C 357.742188 417.476562 356.503906 417.035156 355.289062 416.53125 C 354.074219 416.027344 352.886719 415.46875 351.730469 414.847656 C 350.570312 414.226562 349.445312 413.554688 348.351562 412.824219 C 347.257812 412.09375 346.203125 411.308594 345.1875 410.476562 C 344.171875 409.640625 343.199219 408.761719 342.269531 407.832031 C 341.339844 406.902344 340.457031 405.929688 339.625 404.914062 C 338.789062 403.898438 338.007812 402.84375 337.277344 401.75 C 336.546875 400.65625 335.871094 399.53125 335.25 398.371094 C 334.632812 397.210938 334.070312 396.023438 333.566406 394.808594 C 333.066406 393.59375 332.621094 392.359375 332.242188 391.101562 C 331.859375 389.84375 331.539062 388.570312 331.285156 387.28125 C 331.027344 385.992188 330.835938 384.691406 330.707031 383.382812 C 330.578125 382.074219 330.511719 380.765625 330.511719 379.449219 C 330.511719 378.136719 330.578125 376.824219 330.707031 375.515625 C 330.835938 374.207031 331.027344 372.910156 331.285156 371.621094 C 331.539062 370.328125 331.859375 369.054688 332.242188 367.796875 C 332.621094 366.539062 333.066406 365.304688 333.566406 364.089844 C 334.070312 362.875 334.632812 361.6875 335.25 360.527344 C 335.871094 359.371094 336.546875 358.242188 337.277344 357.152344 C 338.007812 356.058594 338.789062 355.003906 339.625 353.988281 C 340.457031 352.96875 341.339844 351.996094 342.269531 351.066406 C 343.199219 350.136719 344.171875 349.257812 345.1875 348.421875 C 346.203125 347.589844 347.257812 346.808594 348.351562 346.078125 C 349.445312 345.347656 350.570312 344.671875 351.730469 344.050781 C 352.886719 343.433594 354.074219 342.871094 355.289062 342.367188 C 356.503906 341.863281 357.742188 341.421875 359 341.039062 C 360.257812 340.660156 361.53125 340.339844 362.820312 340.082031 C 364.109375 339.828125 365.40625 339.632812 366.714844 339.503906 C 368.023438 339.375 369.335938 339.3125 370.648438 339.3125 C 371.964844 339.3125 373.277344 339.375 374.582031 339.503906 C 375.890625 339.632812 377.191406 339.828125 378.480469 340.082031 C 379.769531 340.339844 381.042969 340.660156 382.300781 341.039062 C 383.558594 341.421875 384.796875 341.863281 386.007812 342.367188 C 387.222656 342.871094 388.410156 343.433594 389.570312 344.050781 C 390.730469 344.671875 391.855469 345.347656 392.949219 346.078125 C 394.042969 346.808594 395.097656 347.589844 396.113281 348.421875 C 397.128906 349.257812 398.101562 350.136719 399.03125 351.066406 C 399.960938 351.996094 400.84375 352.96875 401.675781 353.988281 C 402.511719 355.003906 403.292969 356.058594 404.023438 357.152344 C 404.753906 358.242188 405.429688 359.371094 406.046875 360.527344 C 406.667969 361.6875 407.230469 362.875 407.730469 364.089844 C 408.234375 365.304688 408.675781 366.539062 409.058594 367.796875 C 409.441406 369.054688 409.757812 370.328125 410.015625 371.621094 C 410.273438 372.910156 410.464844 374.207031 410.59375 375.515625 C 410.722656 376.824219 410.789062 378.136719 410.789062 379.449219 C 410.789062 380.765625 410.722656 382.074219 410.59375 383.382812 C 410.464844 384.691406 410.273438 385.992188 410.015625 387.28125 C 409.757812 388.570312 409.441406 389.84375 409.058594 391.101562 C 408.675781 392.359375 408.234375 393.59375 407.730469 394.808594 C 407.230469 396.023438 406.667969 397.210938 406.046875 398.371094 C 405.429688 399.53125 404.753906 400.65625 404.023438 401.75 C 403.292969 402.84375 402.511719 403.898438 401.675781 404.914062 C 400.84375 405.929688 399.960938 406.902344 399.03125 407.832031 C 398.101562 408.761719 397.128906 409.640625 396.113281 410.476562 C 395.097656 411.308594 394.042969 412.09375 392.949219 412.824219 C 391.855469 413.554688 390.730469 414.226562 389.570312 414.847656 C 388.410156 415.46875 387.222656 416.027344 386.007812 416.53125 C 384.796875 417.035156 383.558594 417.476562 382.300781 417.859375 C 381.042969 418.242188 379.769531 418.558594 378.480469 418.816406 C 377.191406 419.074219 375.890625 419.265625 374.582031 419.394531 C 373.277344 419.523438 371.964844 419.585938 370.648438 419.585938 Z M 370.648438 419.585938 " fill-opacity="1" fill-rule="nonzero"/></g><g clip-path="url(#7c96f27883)"><path fill="#288181" d="M 812.164062 680.480469 L 548.417969 680.480469 C 547.875 678.347656 547.246094 676.242188 546.527344 674.160156 C 545.8125 672.078125 545.011719 670.03125 544.125 668.015625 C 543.238281 666.003906 542.269531 664.027344 541.21875 662.09375 C 540.171875 660.160156 539.042969 658.269531 537.839844 656.429688 C 536.632812 654.585938 535.351562 652.796875 534 651.0625 C 532.648438 649.328125 531.222656 647.652344 529.730469 646.03125 C 528.242188 644.414062 526.683594 642.859375 525.0625 641.371094 C 523.445312 639.882812 521.765625 638.460938 520.027344 637.109375 C 518.289062 635.757812 516.5 634.484375 514.65625 633.28125 C 512.8125 632.078125 510.921875 630.953125 508.988281 629.90625 C 507.050781 628.859375 505.074219 627.894531 503.058594 627.011719 C 501.042969 626.128906 498.992188 625.328125 496.914062 624.613281 C 494.832031 623.902344 492.722656 623.273438 490.589844 622.734375 C 488.453125 622.195312 486.300781 621.742188 484.132812 621.382812 C 481.960938 621.019531 479.777344 620.746094 477.585938 620.566406 C 475.390625 620.382812 473.195312 620.292969 470.992188 620.292969 C 468.792969 620.292969 466.59375 620.382812 464.402344 620.566406 C 462.207031 620.746094 460.027344 621.019531 457.855469 621.382812 C 455.683594 621.742188 453.53125 622.195312 451.398438 622.734375 C 449.265625 623.273438 447.15625 623.902344 445.074219 624.613281 C 442.992188 625.328125 440.945312 626.128906 438.929688 627.011719 C 436.914062 627.894531 434.9375 628.859375 433 629.90625 C 431.0625 630.953125 429.175781 632.078125 427.332031 633.28125 C 425.488281 634.484375 423.699219 635.757812 421.960938 637.109375 C 420.222656 638.460938 418.542969 639.882812 416.921875 641.371094 C 415.300781 642.859375 413.746094 644.414062 412.253906 646.03125 C 410.761719 647.652344 409.339844 649.328125 407.988281 651.0625 C 406.632812 652.796875 405.355469 654.585938 404.148438 656.429688 C 402.941406 658.269531 401.816406 660.160156 400.765625 662.09375 C 399.71875 664.027344 398.75 666.003906 397.863281 668.015625 C 396.976562 670.03125 396.175781 672.078125 395.457031 674.160156 C 394.742188 676.242188 394.109375 678.347656 393.566406 680.480469 L 250.238281 680.480469 C 249.578125 680.480469 248.925781 680.511719 248.269531 680.578125 C 247.617188 680.640625 246.964844 680.738281 246.320312 680.867188 C 245.675781 680.996094 245.039062 681.152344 244.410156 681.34375 C 243.78125 681.535156 243.164062 681.757812 242.558594 682.007812 C 241.949219 682.261719 241.355469 682.539062 240.777344 682.851562 C 240.199219 683.160156 239.632812 683.496094 239.085938 683.863281 C 238.542969 684.226562 238.015625 684.621094 237.503906 685.035156 C 236.996094 685.453125 236.511719 685.894531 236.046875 686.359375 C 235.582031 686.824219 235.140625 687.308594 234.722656 687.816406 C 234.308594 688.328125 233.914062 688.855469 233.550781 689.398438 C 233.1875 689.945312 232.847656 690.507812 232.539062 691.089844 C 232.226562 691.667969 231.949219 692.261719 231.695312 692.871094 C 231.445312 693.476562 231.222656 694.09375 231.03125 694.722656 C 230.84375 695.351562 230.683594 695.988281 230.554688 696.632812 C 230.425781 697.277344 230.328125 697.929688 230.265625 698.582031 C 230.199219 699.238281 230.167969 699.890625 230.167969 700.550781 C 230.167969 701.207031 230.199219 701.863281 230.265625 702.515625 C 230.328125 703.171875 230.425781 703.820312 230.554688 704.464844 C 230.683594 705.109375 230.84375 705.746094 231.03125 706.375 C 231.222656 707.003906 231.445312 707.621094 231.695312 708.230469 C 231.949219 708.835938 232.226562 709.429688 232.539062 710.011719 C 232.847656 710.589844 233.1875 711.152344 233.550781 711.699219 C 233.914062 712.246094 234.308594 712.773438 234.722656 713.28125 C 235.140625 713.789062 235.582031 714.277344 236.046875 714.742188 C 236.511719 715.207031 236.996094 715.644531 237.503906 716.0625 C 238.015625 716.480469 238.542969 716.871094 239.085938 717.234375 C 239.632812 717.601562 240.199219 717.9375 240.777344 718.25 C 241.355469 718.558594 241.949219 718.839844 242.558594 719.089844 C 243.164062 719.34375 243.78125 719.5625 244.410156 719.753906 C 245.039062 719.945312 245.675781 720.105469 246.320312 720.234375 C 246.964844 720.359375 247.617188 720.457031 248.269531 720.523438 C 248.925781 720.585938 249.578125 720.617188 250.238281 720.617188 L 393.566406 720.617188 C 394.109375 722.75 394.742188 724.859375 395.457031 726.9375 C 396.175781 729.019531 396.976562 731.066406 397.863281 733.082031 C 398.75 735.097656 399.71875 737.070312 400.765625 739.007812 C 401.816406 740.941406 402.941406 742.828125 404.148438 744.671875 C 405.355469 746.511719 406.632812 748.300781 407.988281 750.035156 C 409.339844 751.773438 410.761719 753.449219 412.253906 755.066406 C 413.746094 756.683594 415.300781 758.238281 416.921875 759.730469 C 418.542969 761.21875 420.222656 762.636719 421.960938 763.988281 C 423.699219 765.339844 425.488281 766.617188 427.332031 767.820312 C 429.175781 769.023438 431.0625 770.148438 433 771.195312 C 434.9375 772.242188 436.914062 773.207031 438.929688 774.089844 C 440.945312 774.972656 442.992188 775.769531 445.074219 776.484375 C 447.15625 777.199219 449.265625 777.824219 451.398438 778.367188 C 453.53125 778.90625 455.683594 779.355469 457.855469 779.71875 C 460.027344 780.082031 462.207031 780.351562 464.402344 780.535156 C 466.59375 780.714844 468.792969 780.804688 470.992188 780.804688 C 473.195312 780.804688 475.390625 780.714844 477.585938 780.535156 C 479.777344 780.351562 481.960938 780.082031 484.132812 779.71875 C 486.300781 779.355469 488.453125 778.90625 490.589844 778.367188 C 492.722656 777.824219 494.832031 777.199219 496.914062 776.484375 C 498.992188 775.769531 501.042969 774.972656 503.058594 774.089844 C 505.074219 773.207031 507.050781 772.242188 508.988281 771.195312 C 510.921875 770.148438 512.8125 769.023438 514.65625 767.820312 C 516.5 766.617188 518.289062 765.339844 520.027344 763.988281 C 521.765625 762.636719 523.445312 761.21875 525.0625 759.730469 C 526.683594 758.238281 528.242188 756.683594 529.730469 755.066406 C 531.222656 753.449219 532.648438 751.773438 534 750.035156 C 535.351562 748.300781 536.632812 746.511719 537.839844 744.671875 C 539.042969 742.828125 540.171875 740.941406 541.21875 739.007812 C 542.269531 737.070312 543.238281 735.097656 544.125 733.082031 C 545.011719 731.066406 545.8125 729.019531 546.527344 726.9375 C 547.246094 724.859375 547.875 722.75 548.417969 720.617188 L 812.164062 720.617188 C 812.820312 720.617188 813.476562 720.585938 814.128906 720.523438 C 814.785156 720.457031 815.433594 720.359375 816.078125 720.234375 C 816.722656 720.105469 817.359375 719.945312 817.988281 719.753906 C 818.617188 719.5625 819.234375 719.34375 819.84375 719.089844 C 820.449219 718.839844 821.042969 718.558594 821.621094 718.25 C 822.203125 717.9375 822.765625 717.601562 823.3125 717.234375 C 823.859375 716.871094 824.386719 716.480469 824.894531 716.0625 C 825.402344 715.644531 825.886719 715.207031 826.351562 714.742188 C 826.816406 714.277344 827.257812 713.789062 827.675781 713.28125 C 828.09375 712.773438 828.484375 712.246094 828.847656 711.699219 C 829.214844 711.152344 829.550781 710.589844 829.859375 710.011719 C 830.171875 709.429688 830.453125 708.835938 830.703125 708.230469 C 830.953125 707.621094 831.175781 707.003906 831.367188 706.375 C 831.558594 705.746094 831.71875 705.109375 831.84375 704.464844 C 831.972656 703.820312 832.070312 703.171875 832.132812 702.515625 C 832.199219 701.863281 832.230469 701.207031 832.230469 700.550781 C 832.230469 699.890625 832.199219 699.238281 832.132812 698.582031 C 832.070312 697.929688 831.972656 697.277344 831.84375 696.632812 C 831.71875 695.988281 831.558594 695.351562 831.367188 694.722656 C 831.175781 694.09375 830.953125 693.476562 830.703125 692.871094 C 830.453125 692.261719 830.171875 691.667969 829.859375 691.089844 C 829.550781 690.507812 829.214844 689.945312 828.847656 689.398438 C 828.484375 688.855469 828.09375 688.328125 827.675781 687.816406 C 827.257812 687.308594 826.816406 686.824219 826.351562 686.359375 C 825.886719 685.894531 825.402344 685.453125 824.894531 685.035156 C 824.386719 684.621094 823.859375 684.226562 823.3125 683.863281 C 822.765625 683.496094 822.203125 683.160156 821.621094 682.851562 C 821.042969 682.539062 820.449219 682.261719 819.84375 682.007812 C 819.234375 681.757812 818.617188 681.535156 817.988281 681.34375 C 817.359375 681.152344 816.722656 680.996094 816.078125 680.867188 C 815.433594 680.738281 814.785156 680.640625 814.128906 680.578125 C 813.476562 680.511719 812.820312 680.480469 812.164062 680.480469 Z M 470.992188 740.6875 C 469.679688 740.6875 468.367188 740.621094 467.058594 740.492188 C 465.75 740.363281 464.453125 740.171875 463.164062 739.914062 C 461.875 739.660156 460.601562 739.339844 459.34375 738.957031 C 458.085938 738.578125 456.847656 738.136719 455.632812 737.632812 C 454.417969 737.128906 453.230469 736.566406 452.074219 735.949219 C 450.914062 735.328125 449.789062 734.652344 448.695312 733.921875 C 447.601562 733.191406 446.546875 732.410156 445.53125 731.578125 C 444.515625 730.742188 443.542969 729.859375 442.613281 728.929688 C 441.683594 728 440.800781 727.027344 439.96875 726.011719 C 439.132812 724.996094 438.351562 723.941406 437.621094 722.847656 C 436.890625 721.753906 436.214844 720.628906 435.59375 719.46875 C 434.976562 718.3125 434.414062 717.125 433.910156 715.910156 C 433.410156 714.695312 432.964844 713.457031 432.585938 712.199219 C 432.203125 710.941406 431.882812 709.667969 431.628906 708.378906 C 431.371094 707.089844 431.179688 705.792969 431.050781 704.484375 C 430.921875 703.175781 430.855469 701.863281 430.855469 700.550781 C 430.855469 699.234375 430.921875 697.921875 431.050781 696.617188 C 431.179688 695.308594 431.371094 694.007812 431.628906 692.71875 C 431.882812 691.429688 432.203125 690.15625 432.585938 688.898438 C 432.964844 687.640625 433.410156 686.402344 433.910156 685.191406 C 434.414062 683.976562 434.976562 682.789062 435.59375 681.628906 C 436.214844 680.46875 436.890625 679.34375 437.621094 678.25 C 438.351562 677.15625 439.132812 676.101562 439.96875 675.085938 C 440.800781 674.070312 441.683594 673.097656 442.613281 672.167969 C 443.542969 671.238281 444.515625 670.355469 445.53125 669.523438 C 446.546875 668.6875 447.601562 667.90625 448.695312 667.175781 C 449.789062 666.445312 450.914062 665.769531 452.074219 665.152344 C 453.230469 664.53125 454.417969 663.96875 455.632812 663.46875 C 456.847656 662.964844 458.085938 662.523438 459.34375 662.140625 C 460.601562 661.757812 461.875 661.441406 463.164062 661.183594 C 464.453125 660.925781 465.75 660.734375 467.058594 660.605469 C 468.367188 660.476562 469.679688 660.414062 470.992188 660.414062 C 472.308594 660.414062 473.621094 660.476562 474.925781 660.605469 C 476.234375 660.734375 477.535156 660.925781 478.824219 661.183594 C 480.113281 661.441406 481.386719 661.757812 482.644531 662.140625 C 483.902344 662.523438 485.140625 662.964844 486.351562 663.46875 C 487.566406 663.96875 488.753906 664.53125 489.914062 665.152344 C 491.074219 665.769531 492.199219 666.445312 493.292969 667.175781 C 494.386719 667.90625 495.441406 668.6875 496.457031 669.523438 C 497.472656 670.355469 498.445312 671.238281 499.375 672.167969 C 500.304688 673.097656 501.1875 674.070312 502.019531 675.085938 C 502.855469 676.101562 503.636719 677.15625 504.367188 678.25 C 505.097656 679.34375 505.773438 680.46875 506.390625 681.628906 C 507.011719 682.789062 507.574219 683.976562 508.074219 685.191406 C 508.578125 686.402344 509.019531 687.640625 509.402344 688.898438 C 509.785156 690.15625 510.101562 691.429688 510.359375 692.71875 C 510.617188 694.007812 510.808594 695.308594 510.9375 696.617188 C 511.066406 697.921875 511.132812 699.234375 511.132812 700.550781 C 511.132812 701.863281 511.066406 703.175781 510.9375 704.484375 C 510.808594 705.792969 510.617188 707.089844 510.359375 708.378906 C 510.101562 709.667969 509.785156 710.941406 509.402344 712.199219 C 509.019531 713.457031 508.578125 714.695312 508.074219 715.910156 C 507.574219 717.125 507.011719 718.3125 506.390625 719.46875 C 505.773438 720.628906 505.097656 721.753906 504.367188 722.847656 C 503.636719 723.941406 502.855469 724.996094 502.019531 726.011719 C 501.1875 727.027344 500.304688 728 499.375 728.929688 C 498.445312 729.859375 497.472656 730.742188 496.457031 731.578125 C 495.441406 732.410156 494.386719 733.191406 493.292969 733.921875 C 492.199219 734.652344 491.074219 735.328125 489.914062 735.949219 C 488.753906 736.566406 487.566406 737.128906 486.351562 737.632812 C 485.140625 738.136719 483.902344 738.578125 482.644531 738.957031 C 481.386719 739.339844 480.113281 739.660156 478.824219 739.914062 C 477.535156 740.171875 476.234375 740.363281 474.925781 740.492188 C 473.621094 740.621094 472.308594 740.6875 470.992188 740.6875 Z M 470.992188 740.6875 " fill-opacity="1" fill-rule="nonzero"/></g><g clip-path="url(#151099e49c)"><path fill="#288181" d="M 812.164062 519.929688 L 789.242188 519.929688 C 788.699219 517.796875 788.070312 515.691406 787.355469 513.609375 C 786.636719 511.53125 785.835938 509.480469 784.949219 507.46875 C 784.0625 505.453125 783.09375 503.476562 782.046875 501.542969 C 780.996094 499.609375 779.867188 497.71875 778.664062 495.878906 C 777.457031 494.039062 776.179688 492.25 774.824219 490.511719 C 773.472656 488.777344 772.050781 487.101562 770.558594 485.480469 C 769.066406 483.863281 767.507812 482.308594 765.890625 480.820312 C 764.269531 479.332031 762.589844 477.910156 760.851562 476.558594 C 759.113281 475.210938 757.324219 473.933594 755.480469 472.730469 C 753.636719 471.527344 751.746094 470.402344 749.8125 469.355469 C 747.875 468.308594 745.898438 467.34375 743.882812 466.460938 C 741.867188 465.578125 739.820312 464.777344 737.738281 464.066406 C 735.65625 463.351562 733.546875 462.722656 731.414062 462.183594 C 729.28125 461.644531 727.128906 461.191406 724.957031 460.832031 C 722.785156 460.46875 720.601562 460.199219 718.410156 460.015625 C 716.214844 459.835938 714.019531 459.742188 711.820312 459.742188 C 709.617188 459.742188 707.421875 459.835938 705.226562 460.015625 C 703.035156 460.199219 700.851562 460.46875 698.679688 460.832031 C 696.507812 461.191406 694.355469 461.644531 692.222656 462.183594 C 690.089844 462.722656 687.980469 463.351562 685.898438 464.066406 C 683.816406 464.777344 681.769531 465.578125 679.753906 466.460938 C 677.738281 467.34375 675.761719 468.308594 673.824219 469.355469 C 671.890625 470.402344 670 471.527344 668.15625 472.730469 C 666.3125 473.933594 664.523438 475.210938 662.785156 476.558594 C 661.046875 477.910156 659.367188 479.332031 657.746094 480.820312 C 656.128906 482.308594 654.570312 483.863281 653.078125 485.480469 C 651.585938 487.101562 650.164062 488.777344 648.8125 490.511719 C 647.457031 492.25 646.179688 494.039062 644.972656 495.878906 C 643.769531 497.71875 642.640625 499.609375 641.589844 501.542969 C 640.542969 503.476562 639.574219 505.453125 638.6875 507.46875 C 637.800781 509.480469 637 511.53125 636.28125 513.609375 C 635.566406 515.691406 634.9375 517.796875 634.394531 519.929688 L 250.238281 519.929688 C 249.578125 519.929688 248.925781 519.964844 248.269531 520.027344 C 247.617188 520.09375 246.964844 520.1875 246.320312 520.316406 C 245.675781 520.445312 245.039062 520.605469 244.410156 520.796875 C 243.78125 520.984375 243.164062 521.207031 242.558594 521.457031 C 241.949219 521.710938 241.355469 521.992188 240.777344 522.300781 C 240.199219 522.609375 239.632812 522.949219 239.085938 523.3125 C 238.542969 523.679688 238.015625 524.070312 237.503906 524.484375 C 236.996094 524.902344 236.511719 525.34375 236.046875 525.808594 C 235.582031 526.273438 235.140625 526.761719 234.722656 527.269531 C 234.308594 527.777344 233.914062 528.304688 233.550781 528.851562 C 233.1875 529.398438 232.847656 529.960938 232.539062 530.539062 C 232.226562 531.117188 231.949219 531.710938 231.695312 532.320312 C 231.445312 532.925781 231.222656 533.546875 231.03125 534.175781 C 230.84375 534.804688 230.683594 535.441406 230.554688 536.085938 C 230.425781 536.730469 230.328125 537.378906 230.265625 538.03125 C 230.199219 538.6875 230.167969 539.34375 230.167969 540 C 230.167969 540.65625 230.199219 541.3125 230.265625 541.964844 C 230.328125 542.621094 230.425781 543.269531 230.554688 543.914062 C 230.683594 544.558594 230.84375 545.195312 231.03125 545.824219 C 231.222656 546.453125 231.445312 547.074219 231.695312 547.679688 C 231.949219 548.285156 232.226562 548.878906 232.539062 549.460938 C 232.847656 550.039062 233.1875 550.601562 233.550781 551.148438 C 233.914062 551.695312 234.308594 552.222656 234.722656 552.730469 C 235.140625 553.238281 235.582031 553.726562 236.046875 554.191406 C 236.511719 554.65625 236.996094 555.097656 237.503906 555.511719 C 238.015625 555.929688 238.542969 556.320312 239.085938 556.6875 C 239.632812 557.050781 240.199219 557.390625 240.777344 557.699219 C 241.355469 558.007812 241.949219 558.289062 242.558594 558.539062 C 243.164062 558.792969 243.78125 559.011719 244.410156 559.203125 C 245.039062 559.394531 245.675781 559.554688 246.320312 559.683594 C 246.964844 559.8125 247.617188 559.90625 248.269531 559.972656 C 248.925781 560.035156 249.578125 560.070312 250.238281 560.070312 L 634.394531 560.070312 C 634.9375 562.203125 635.566406 564.308594 636.28125 566.390625 C 637 568.46875 637.800781 570.519531 638.6875 572.53125 C 639.574219 574.546875 640.542969 576.523438 641.589844 578.457031 C 642.640625 580.390625 643.769531 582.277344 644.972656 584.121094 C 646.179688 585.960938 647.457031 587.75 648.8125 589.484375 C 650.164062 591.222656 651.585938 592.898438 653.078125 594.515625 C 654.570312 596.136719 656.128906 597.6875 657.746094 599.179688 C 659.367188 600.667969 661.046875 602.089844 662.785156 603.4375 C 664.523438 604.789062 666.3125 606.066406 668.15625 607.269531 C 670 608.472656 671.890625 609.597656 673.824219 610.644531 C 675.761719 611.691406 677.738281 612.65625 679.753906 613.539062 C 681.769531 614.421875 683.816406 615.222656 685.898438 615.933594 C 687.980469 616.648438 690.089844 617.277344 692.222656 617.816406 C 694.355469 618.355469 696.507812 618.804688 698.679688 619.167969 C 700.851562 619.53125 703.035156 619.800781 705.226562 619.984375 C 707.421875 620.164062 709.617188 620.253906 711.820312 620.253906 C 714.019531 620.253906 716.214844 620.164062 718.410156 619.984375 C 720.601562 619.800781 722.785156 619.53125 724.957031 619.167969 C 727.128906 618.804688 729.28125 618.355469 731.414062 617.816406 C 733.546875 617.277344 735.65625 616.648438 737.738281 615.933594 C 739.820312 615.222656 741.867188 614.421875 743.882812 613.539062 C 745.898438 612.65625 747.875 611.691406 749.8125 610.644531 C 751.746094 609.597656 753.636719 608.472656 755.480469 607.269531 C 757.324219 606.066406 759.113281 604.789062 760.851562 603.4375 C 762.589844 602.089844 764.269531 600.667969 765.890625 599.179688 C 767.507812 597.6875 769.066406 596.136719 770.558594 594.515625 C 772.050781 592.898438 773.472656 591.222656 774.824219 589.484375 C 776.179688 587.75 777.457031 585.960938 778.664062 584.121094 C 779.867188 582.277344 780.996094 580.390625 782.046875 578.457031 C 783.09375 576.523438 784.0625 574.546875 784.949219 572.53125 C 785.835938 570.519531 786.636719 568.46875 787.355469 566.390625 C 788.070312 564.308594 788.699219 562.203125 789.242188 560.070312 L 812.164062 560.070312 C 812.820312 560.070312 813.476562 560.035156 814.128906 559.972656 C 814.785156 559.90625 815.433594 559.8125 816.078125 559.683594 C 816.722656 559.554688 817.359375 559.394531 817.988281 559.203125 C 818.617188 559.011719 819.234375 558.792969 819.84375 558.539062 C 820.449219 558.289062 821.042969 558.007812 821.621094 557.699219 C 822.203125 557.390625 822.765625 557.050781 823.3125 556.6875 C 823.859375 556.320312 824.386719 555.929688 824.894531 555.511719 C 825.402344 555.097656 825.886719 554.65625 826.351562 554.191406 C 826.816406 553.726562 827.257812 553.238281 827.675781 552.730469 C 828.09375 552.222656 828.484375 551.695312 828.847656 551.148438 C 829.214844 550.601562 829.550781 550.039062 829.859375 549.460938 C 830.171875 548.878906 830.453125 548.285156 830.703125 547.679688 C 830.953125 547.074219 831.175781 546.453125 831.367188 545.824219 C 831.558594 545.195312 831.71875 544.558594 831.84375 543.914062 C 831.972656 543.269531 832.070312 542.621094 832.132812 541.964844 C 832.199219 541.3125 832.230469 540.65625 832.230469 540 C 832.230469 539.34375 832.199219 538.6875 832.132812 538.03125 C 832.070312 537.378906 831.972656 536.730469 831.84375 536.085938 C 831.71875 535.441406 831.558594 534.804688 831.367188 534.175781 C 831.175781 533.546875 830.953125 532.925781 830.703125 532.320312 C 830.453125 531.710938 830.171875 531.117188 829.859375 530.539062 C 829.550781 529.960938 829.214844 529.398438 828.847656 528.851562 C 828.484375 528.304688 828.09375 527.777344 827.675781 527.269531 C 827.257812 526.761719 826.816406 526.273438 826.351562 525.808594 C 825.886719 525.34375 825.402344 524.902344 824.894531 524.484375 C 824.386719 524.070312 823.859375 523.679688 823.3125 523.3125 C 822.765625 522.949219 822.203125 522.609375 821.621094 522.300781 C 821.042969 521.992188 820.449219 521.710938 819.84375 521.457031 C 819.234375 521.207031 818.617188 520.984375 817.988281 520.796875 C 817.359375 520.605469 816.722656 520.445312 816.078125 520.316406 C 815.433594 520.1875 814.785156 520.09375 814.128906 520.027344 C 813.476562 519.964844 812.820312 519.929688 812.164062 519.929688 Z M 711.820312 580.136719 C 710.503906 580.136719 709.191406 580.074219 707.882812 579.945312 C 706.574219 579.816406 705.277344 579.621094 703.988281 579.367188 C 702.699219 579.109375 701.425781 578.789062 700.167969 578.410156 C 698.910156 578.027344 697.671875 577.585938 696.457031 577.082031 C 695.242188 576.578125 694.058594 576.015625 692.898438 575.398438 C 691.738281 574.777344 690.613281 574.101562 689.519531 573.371094 C 688.425781 572.640625 687.371094 571.859375 686.355469 571.027344 C 685.339844 570.191406 684.367188 569.3125 683.4375 568.382812 C 682.507812 567.453125 681.625 566.480469 680.792969 565.460938 C 679.957031 564.445312 679.175781 563.390625 678.445312 562.296875 C 677.714844 561.207031 677.039062 560.078125 676.421875 558.921875 C 675.800781 557.761719 675.238281 556.574219 674.734375 555.359375 C 674.234375 554.144531 673.789062 552.910156 673.410156 551.652344 C 673.027344 550.394531 672.707031 549.121094 672.453125 547.832031 C 672.195312 546.539062 672.003906 545.242188 671.875 543.933594 C 671.746094 542.625 671.679688 541.3125 671.679688 540 C 671.679688 538.683594 671.746094 537.375 671.875 536.066406 C 672.003906 534.757812 672.195312 533.457031 672.453125 532.167969 C 672.707031 530.878906 673.027344 529.605469 673.410156 528.347656 C 673.789062 527.089844 674.234375 525.855469 674.734375 524.640625 C 675.238281 523.425781 675.800781 522.238281 676.421875 521.078125 C 677.039062 519.917969 677.714844 518.792969 678.445312 517.699219 C 679.175781 516.609375 679.957031 515.554688 680.792969 514.535156 C 681.625 513.519531 682.507812 512.546875 683.4375 511.617188 C 684.367188 510.6875 685.339844 509.808594 686.355469 508.972656 C 687.371094 508.140625 688.425781 507.355469 689.519531 506.625 C 690.613281 505.894531 691.738281 505.222656 692.898438 504.601562 C 694.058594 503.980469 695.242188 503.421875 696.457031 502.917969 C 697.671875 502.414062 698.910156 501.972656 700.167969 501.589844 C 701.425781 501.207031 702.699219 500.890625 703.988281 500.632812 C 705.277344 500.378906 706.574219 500.183594 707.882812 500.054688 C 709.191406 499.925781 710.503906 499.863281 711.820312 499.863281 C 713.132812 499.863281 714.445312 499.925781 715.753906 500.054688 C 717.0625 500.183594 718.359375 500.378906 719.648438 500.632812 C 720.9375 500.890625 722.210938 501.207031 723.46875 501.589844 C 724.726562 501.972656 725.964844 502.414062 727.179688 502.917969 C 728.394531 503.421875 729.578125 503.980469 730.738281 504.601562 C 731.898438 505.222656 733.023438 505.894531 734.117188 506.625 C 735.210938 507.355469 736.265625 508.140625 737.28125 508.972656 C 738.296875 509.808594 739.269531 510.6875 740.199219 511.617188 C 741.128906 512.546875 742.011719 513.519531 742.84375 514.535156 C 743.679688 515.554688 744.460938 516.605469 745.191406 517.699219 C 745.921875 518.792969 746.597656 519.917969 747.214844 521.078125 C 747.835938 522.238281 748.398438 523.425781 748.902344 524.640625 C 749.402344 525.855469 749.847656 527.089844 750.226562 528.347656 C 750.609375 529.605469 750.929688 530.878906 751.183594 532.167969 C 751.441406 533.457031 751.632812 534.757812 751.761719 536.066406 C 751.890625 537.375 751.957031 538.683594 751.957031 540 C 751.957031 541.3125 751.890625 542.625 751.761719 543.933594 C 751.632812 545.242188 751.441406 546.539062 751.183594 547.832031 C 750.929688 549.121094 750.609375 550.394531 750.226562 551.652344 C 749.847656 552.910156 749.402344 554.144531 748.902344 555.359375 C 748.398438 556.574219 747.835938 557.761719 747.214844 558.921875 C 746.597656 560.078125 745.921875 561.207031 745.191406 562.296875 C 744.460938 563.390625 743.679688 564.445312 742.84375 565.460938 C 742.011719 566.480469 741.128906 567.453125 740.199219 568.382812 C 739.269531 569.3125 738.296875 570.191406 737.28125 571.027344 C 736.265625 571.859375 735.210938 572.640625 734.117188 573.371094 C 733.023438 574.101562 731.898438 574.777344 730.738281 575.398438 C 729.578125 576.015625 728.394531 576.578125 727.179688 577.082031 C 725.964844 577.585938 724.726562 578.027344 723.46875 578.410156 C 722.210938 578.789062 720.9375 579.109375 719.648438 579.367188 C 718.359375 579.621094 717.0625 579.816406 715.753906 579.945312 C 714.445312 580.074219 713.132812 580.136719 711.820312 580.136719 Z M 711.820312 580.136719 " fill-opacity="1" fill-rule="nonzero"/></g></svg>