<svg xmlns="http://www.w3.org/2000/svg" xmlns:xlink="http://www.w3.org/1999/xlink" width="1440" zoomAndPan="magnify" viewBox="0 0 1080 1079.999946" height="1440" preserveAspectRatio="xMidYMid meet" version="1.0"><defs><clipPath id="efe7062602"><path d="M 320.035156 388 L 759.84375 388 L 759.84375 803.15625 L 320.035156 803.15625 Z M 320.035156 388 " clip-rule="nonzero"/></clipPath></defs><g clip-path="url(#efe7062602)"><path fill="#30a2eb" d="M 756.984375 575 L 549.363281 391.597656 C 543.976562 386.84375 535.902344 386.84375 530.519531 391.597656 L 322.894531 575 C 321.367188 576.351562 320.492188 578.292969 320.492188 580.335938 L 320.492188 796.042969 C 320.492188 799.972656 323.679688 803.15625 327.609375 803.15625 L 473.554688 803.15625 C 477.480469 803.15625 480.667969 799.972656 480.667969 796.042969 L 480.667969 658.269531 C 480.667969 642.554688 493.40625 629.8125 509.125 629.8125 L 570.753906 629.8125 C 586.472656 629.8125 599.210938 642.554688 599.210938 658.269531 L 599.210938 796.042969 C 599.210938 799.972656 602.398438 803.15625 606.328125 803.15625 L 752.273438 803.15625 C 756.199219 803.15625 759.386719 799.972656 759.386719 796.042969 L 759.386719 580.335938 C 759.386719 578.292969 758.511719 576.351562 756.984375 575 " fill-opacity="1" fill-rule="nonzero"/></g><path fill="#30a2eb" d="M 814.183594 503.835938 L 577.515625 295.835938 C 556.023438 276.953125 523.855469 276.953125 502.367188 295.835938 L 265.699219 503.835938 C 254.03125 514.09375 253.453125 532.066406 264.433594 543.054688 C 274.472656 553.085938 290.578125 553.59375 301.222656 544.21875 L 521.128906 350.53125 C 531.882812 341.058594 548 341.058594 558.75 350.527344 L 778.660156 544.21875 C 789.308594 553.59375 805.410156 553.085938 815.445312 543.054688 C 826.429688 532.066406 825.851562 514.089844 814.183594 503.835938 " fill-opacity="1" fill-rule="nonzero"/></svg>