<svg xmlns="http://www.w3.org/2000/svg" xmlns:xlink="http://www.w3.org/1999/xlink" width="1440" zoomAndPan="magnify" viewBox="0 0 1080 1079.999946" height="1440" preserveAspectRatio="xMidYMid meet" version="1.0"><defs><clipPath id="90ebe9ebc1"><path d="M 326 242.699219 L 754 242.699219 L 754 837.449219 L 326 837.449219 Z M 326 242.699219 " clip-rule="nonzero"/></clipPath></defs><g clip-path="url(#90ebe9ebc1)"><path fill="#30a2eb" d="M 478.796875 280.753906 C 483.554688 271.195312 490.496094 262.886719 498.941406 256.507812 C 510.386719 247.855469 524.628906 242.699219 539.984375 242.699219 C 555.351562 242.699219 569.578125 247.855469 581.039062 256.507812 C 589.484375 262.898438 596.425781 271.195312 601.183594 280.753906 C 602.191406 282.773438 600.675781 285.152344 598.417969 285.152344 L 582.628906 285.152344 C 581.605469 285.152344 580.667969 284.632812 580.089844 283.785156 C 577.085938 279.386719 573.382812 275.492188 569.132812 272.28125 C 561.015625 266.15625 550.921875 262.5 539.996094 262.5 C 529.070312 262.5 518.980469 266.15625 510.863281 272.28125 C 506.609375 275.492188 502.910156 279.386719 499.90625 283.785156 C 499.328125 284.632812 498.390625 285.152344 497.363281 285.152344 L 481.578125 285.152344 C 479.304688 285.167969 477.789062 282.789062 478.796875 280.753906 Z M 430.160156 338.25 L 649.820312 338.25 C 651.929688 338.25 653.625 336.539062 653.625 334.445312 L 653.625 308.789062 C 653.625 306.675781 651.914062 304.984375 649.820312 304.984375 L 430.160156 304.984375 C 428.050781 304.984375 426.355469 306.691406 426.355469 308.789062 L 426.355469 334.445312 C 426.355469 336.539062 428.050781 338.25 430.160156 338.25 Z M 753.742188 338.28125 L 753.742188 830.53125 C 753.742188 834.265625 750.707031 837.296875 746.976562 837.296875 L 333.003906 837.296875 C 329.273438 837.296875 326.238281 834.261719 326.238281 830.53125 L 326.238281 338.28125 C 326.238281 334.550781 329.273438 331.515625 333.003906 331.515625 L 399.777344 331.515625 C 403.507812 331.515625 406.539062 334.550781 406.539062 338.28125 L 406.539062 348.0625 C 406.539062 353.589844 411.015625 358.066406 416.542969 358.066406 L 663.4375 358.066406 C 668.964844 358.066406 673.441406 353.589844 673.441406 348.0625 L 673.441406 338.28125 C 673.441406 334.550781 676.472656 331.515625 680.203125 331.515625 L 746.976562 331.515625 C 750.707031 331.515625 753.742188 334.550781 753.742188 338.28125 Z M 526.722656 423.457031 C 527.316406 428.511719 531.882812 432.152344 536.980469 432.152344 L 675.386719 432.152344 C 681.257812 432.152344 685.925781 427.054688 685.226562 421.03125 C 684.632812 415.980469 680.070312 412.335938 674.972656 412.335938 L 536.5625 412.335938 C 530.691406 412.335938 526.023438 417.449219 526.722656 423.457031 Z M 536.5625 477.640625 L 644.601562 477.640625 C 650.472656 477.640625 655.140625 472.539062 654.441406 466.519531 C 653.847656 461.464844 649.285156 457.824219 644.1875 457.824219 L 536.980469 457.824219 C 531.894531 457.824219 527.316406 461.480469 526.722656 466.519531 C 526.023438 472.523438 530.691406 477.640625 536.5625 477.640625 Z M 526.722656 550.625 C 527.316406 555.679688 531.882812 559.320312 536.980469 559.320312 L 675.386719 559.320312 C 681.257812 559.320312 685.925781 554.222656 685.226562 548.203125 C 684.632812 543.148438 680.070312 539.507812 674.972656 539.507812 L 536.5625 539.507812 C 530.691406 539.523438 526.023438 544.621094 526.722656 550.625 Z M 654.441406 593.691406 C 653.847656 588.636719 649.285156 584.992188 644.1875 584.992188 L 536.980469 584.992188 C 531.894531 584.992188 527.316406 588.648438 526.722656 593.691406 C 526.007812 599.695312 530.691406 604.792969 536.5625 604.792969 L 644.601562 604.792969 C 650.472656 604.808594 655.140625 599.710938 654.441406 593.691406 Z M 505.453125 676.695312 C 505.453125 671.164062 500.976562 666.691406 495.449219 666.691406 L 404.683594 666.691406 C 399.152344 666.691406 394.679688 671.164062 394.679688 676.695312 L 394.679688 767.445312 C 394.679688 772.976562 399.152344 777.449219 404.683594 777.449219 L 495.433594 777.449219 C 500.960938 777.449219 505.4375 772.976562 505.4375 767.445312 L 505.4375 676.695312 Z M 505.453125 549.527344 C 505.453125 543.996094 500.976562 539.523438 495.449219 539.523438 L 404.683594 539.523438 C 399.152344 539.523438 394.679688 543.996094 394.679688 549.527344 L 394.679688 640.277344 C 394.679688 645.804688 399.152344 650.28125 404.683594 650.28125 L 495.433594 650.28125 C 500.960938 650.28125 505.4375 645.804688 505.4375 640.277344 L 505.4375 549.527344 Z M 505.453125 422.339844 C 505.453125 416.8125 500.976562 412.335938 495.449219 412.335938 L 404.683594 412.335938 C 399.152344 412.335938 394.679688 416.8125 394.679688 422.339844 L 394.679688 513.089844 C 394.679688 518.621094 399.152344 523.097656 404.683594 523.097656 L 495.433594 523.097656 C 500.960938 523.097656 505.4375 518.621094 505.4375 513.089844 L 505.4375 422.339844 Z M 654.441406 720.875 C 653.847656 715.820312 649.285156 712.179688 644.1875 712.179688 L 536.5625 712.179688 C 530.691406 712.179688 526.023438 717.277344 526.722656 723.296875 C 527.316406 728.351562 531.882812 731.992188 536.980469 731.992188 L 644.601562 731.992188 C 650.472656 731.992188 655.15625 726.878906 654.441406 720.875 Z M 685.226562 675.402344 C 684.632812 670.347656 680.070312 666.707031 674.972656 666.707031 L 536.5625 666.707031 C 530.691406 666.707031 526.023438 671.804688 526.722656 677.824219 C 527.316406 682.878906 531.882812 686.519531 536.980469 686.519531 L 675.386719 686.519531 C 681.257812 686.507812 685.925781 681.40625 685.226562 675.402344 Z M 485.636719 436.03125 L 485.636719 499.417969 C 485.636719 501.554688 483.898438 503.296875 481.757812 503.296875 L 418.371094 503.296875 C 416.230469 503.296875 414.492188 501.554688 414.492188 499.417969 L 414.492188 436.03125 C 414.492188 433.890625 416.230469 432.152344 418.371094 432.152344 L 481.757812 432.152344 C 483.898438 432.152344 485.636719 433.890625 485.636719 436.03125 Z M 477.800781 444.015625 C 473.894531 440.207031 467.636719 440.296875 463.828125 444.207031 L 438.53125 470.355469 C 438.484375 470.398438 438.425781 470.398438 438.394531 470.355469 L 436.359375 468.378906 C 432.730469 464.871094 426.949219 464.320312 423.027344 467.5 C 418.359375 471.304688 418.179688 478.1875 422.371094 482.246094 L 431.839844 491.449219 C 435.75 495.253906 442.007812 495.164062 445.8125 491.253906 L 478.011719 457.988281 C 481.800781 454.078125 481.710938 447.820312 477.800781 444.015625 Z M 485.636719 563.214844 L 485.636719 626.601562 C 485.636719 628.742188 483.898438 630.480469 481.757812 630.480469 L 418.371094 630.480469 C 416.230469 630.480469 414.492188 628.742188 414.492188 626.601562 L 414.492188 563.214844 C 414.492188 561.074219 416.230469 559.335938 418.371094 559.335938 L 481.757812 559.335938 C 483.898438 559.335938 485.636719 561.0625 485.636719 563.214844 Z M 477.800781 571.183594 C 473.894531 567.378906 467.636719 567.46875 463.828125 571.378906 L 438.542969 597.523438 C 438.5 597.570312 438.441406 597.570312 438.410156 597.523438 L 436.375 595.546875 C 432.746094 592.039062 426.964844 591.488281 423.039062 594.671875 C 418.371094 598.476562 418.195312 605.359375 422.386719 609.417969 L 431.855469 618.617188 C 435.765625 622.421875 442.023438 622.335938 445.828125 618.425781 L 478.027344 585.15625 C 481.800781 581.246094 481.710938 574.988281 477.800781 571.183594 Z M 485.636719 690.386719 L 485.636719 753.769531 C 485.636719 755.910156 483.898438 757.648438 481.757812 757.648438 L 418.371094 757.648438 C 416.230469 757.648438 414.492188 755.910156 414.492188 753.769531 L 414.492188 690.386719 C 414.492188 688.246094 416.230469 686.507812 418.371094 686.507812 L 481.757812 686.507812 C 483.898438 686.507812 485.636719 688.246094 485.636719 690.386719 Z M 477.800781 698.367188 C 473.894531 694.5625 467.636719 694.652344 463.828125 698.5625 L 438.53125 724.710938 C 438.484375 724.753906 438.425781 724.753906 438.394531 724.710938 L 436.359375 722.730469 C 432.730469 719.222656 426.949219 718.675781 423.027344 721.855469 C 418.359375 725.660156 418.179688 732.542969 422.371094 736.601562 L 431.839844 745.800781 C 435.75 749.609375 442.007812 749.519531 445.8125 745.609375 L 478.011719 712.339844 C 481.800781 708.417969 481.710938 702.175781 477.800781 698.367188 Z M 477.800781 698.367188 " fill-opacity="1" fill-rule="evenodd"/></g></svg>