<svg xmlns="http://www.w3.org/2000/svg" xmlns:xlink="http://www.w3.org/1999/xlink" width="1440" zoomAndPan="magnify" viewBox="0 0 1080 1079.999946" height="1440" preserveAspectRatio="xMidYMid meet" version="1.0"><defs><clipPath id="3184e85667"><path d="M 570.527344 552.808594 L 577.125 552.808594 L 577.125 555.589844 L 570.527344 555.589844 Z M 570.527344 552.808594 " clip-rule="nonzero"/></clipPath><clipPath id="1c9f10d873"><path d="M 570 524.394531 L 577 524.394531 L 577 528 L 570 528 Z M 570 524.394531 " clip-rule="nonzero"/></clipPath><clipPath id="c76da950e1"><path d="M 554.601562 531 L 560 531 L 560 547 L 554.601562 547 Z M 554.601562 531 " clip-rule="nonzero"/></clipPath><clipPath id="fd6056e567"><path d="M 589 531.21875 L 592.851562 531.21875 L 592.851562 545.207031 L 589 545.207031 Z M 589 531.21875 " clip-rule="nonzero"/></clipPath><clipPath id="964987f94d"><path d="M 177.175781 177.175781 L 903 177.175781 L 903 903 L 177.175781 903 Z M 177.175781 177.175781 " clip-rule="nonzero"/></clipPath></defs><g clip-path="url(#3184e85667)"><path fill="#ffffff" d="M 575.929688 552.839844 L 570.585938 552.839844 C 570.851562 554.398438 572.207031 555.589844 573.839844 555.589844 C 575.472656 555.589844 576.832031 554.398438 577.09375 552.839844 L 575.929688 552.839844 " fill-opacity="1" fill-rule="nonzero"/></g><g clip-path="url(#1c9f10d873)"><path fill="#ffffff" d="M 571.925781 527.28125 C 572.546875 527.15625 573.183594 527.085938 573.839844 527.085938 C 574.496094 527.085938 575.132812 527.15625 575.753906 527.28125 C 575.953125 527.324219 576.152344 527.371094 576.347656 527.421875 C 576.542969 527.476562 576.734375 527.539062 576.925781 527.601562 C 576.890625 525.832031 575.519531 524.40625 573.839844 524.40625 C 572.160156 524.40625 570.789062 525.832031 570.753906 527.601562 C 570.945312 527.539062 571.136719 527.476562 571.332031 527.421875 C 571.527344 527.371094 571.726562 527.324219 571.925781 527.28125 " fill-opacity="1" fill-rule="nonzero"/></g><path fill="#ffffff" d="M 585.300781 548.539062 C 584.546875 547.824219 583.765625 547.089844 583.136719 546.074219 C 582.121094 544.429688 582.75 538.375 582.765625 538.203125 L 582.761719 538.160156 L 582.761719 538.109375 C 582.765625 537.996094 582.769531 537.894531 582.769531 537.792969 C 582.769531 533.65625 580.304688 530.125 576.867188 528.792969 C 576.683594 528.722656 576.496094 528.65625 576.304688 528.597656 C 576.117188 528.539062 575.925781 528.488281 575.734375 528.445312 C 575.125 528.304688 574.492188 528.226562 573.839844 528.226562 C 573.191406 528.226562 572.554688 528.304688 571.945312 528.445312 C 571.753906 528.488281 571.5625 528.539062 571.375 528.597656 C 571.1875 528.65625 570.996094 528.722656 570.8125 528.792969 C 567.375 530.125 564.914062 533.65625 564.914062 537.792969 C 564.914062 537.894531 564.914062 537.996094 564.917969 538.109375 L 564.917969 538.160156 L 564.914062 538.203125 C 564.929688 538.386719 565.558594 544.433594 564.542969 546.074219 C 563.914062 547.089844 563.132812 547.824219 562.378906 548.539062 C 562.003906 548.894531 561.574219 549.59375 561.28125 550.328125 C 560.996094 551.050781 560.953125 551.515625 560.976562 551.699219 L 586.761719 551.699219 C 586.792969 551.535156 586.753906 551.070312 586.441406 550.328125 C 586.132812 549.605469 585.6875 548.902344 585.300781 548.539062 " fill-opacity="1" fill-rule="nonzero"/><path fill="#ffffff" d="M 561.5625 543.308594 C 561.988281 543.007812 562.085938 542.421875 561.785156 541.996094 C 561.015625 540.921875 560.613281 539.652344 560.613281 538.328125 C 560.613281 537.0625 560.984375 535.84375 561.683594 534.796875 C 561.976562 534.367188 561.859375 533.785156 561.429688 533.492188 C 561 533.203125 560.414062 533.316406 560.125 533.75 C 559.214844 535.105469 558.730469 536.6875 558.730469 538.328125 C 558.730469 540.046875 559.257812 541.691406 560.253906 543.089844 C 560.4375 543.347656 560.726562 543.484375 561.019531 543.484375 C 561.207031 543.484375 561.398438 543.425781 561.5625 543.308594 " fill-opacity="1" fill-rule="nonzero"/><g clip-path="url(#c76da950e1)"><path fill="#ffffff" d="M 556.882812 538.328125 C 556.882812 536.378906 557.441406 534.488281 558.496094 532.859375 C 558.839844 532.332031 558.6875 531.625 558.160156 531.285156 C 557.632812 530.941406 556.925781 531.089844 556.582031 531.621094 C 555.289062 533.617188 554.601562 535.9375 554.601562 538.328125 C 554.601562 540.957031 555.417969 543.46875 556.964844 545.589844 C 557.1875 545.894531 557.535156 546.058594 557.886719 546.058594 C 558.117188 546.058594 558.355469 545.988281 558.554688 545.839844 C 559.066406 545.46875 559.175781 544.757812 558.804688 544.246094 C 557.546875 542.519531 556.882812 540.472656 556.882812 538.328125 " fill-opacity="1" fill-rule="nonzero"/></g><path fill="#ffffff" d="M 586.113281 533.40625 C 585.683594 533.703125 585.578125 534.289062 585.875 534.714844 C 586.609375 535.777344 587 537.023438 587 538.320312 C 587 539.582031 586.632812 540.796875 585.933594 541.839844 C 585.644531 542.273438 585.761719 542.855469 586.191406 543.144531 C 586.351562 543.253906 586.535156 543.304688 586.714844 543.304688 C 587.015625 543.304688 587.316406 543.15625 587.496094 542.886719 C 588.402344 541.535156 588.878906 539.957031 588.878906 538.320312 C 588.878906 536.640625 588.375 535.023438 587.417969 533.644531 C 587.125 533.21875 586.539062 533.113281 586.113281 533.40625 " fill-opacity="1" fill-rule="nonzero"/><g clip-path="url(#fd6056e567)"><path fill="#ffffff" d="M 591.136719 531.78125 C 590.804688 531.25 590.101562 531.085938 589.566406 531.421875 C 589.03125 531.753906 588.871094 532.457031 589.203125 532.992188 C 590.203125 534.585938 590.730469 536.429688 590.730469 538.320312 C 590.730469 540.121094 590.25 541.886719 589.34375 543.425781 C 589.023438 543.96875 589.203125 544.667969 589.746094 544.984375 C 589.929688 545.09375 590.125 545.144531 590.324219 545.144531 C 590.714844 545.144531 591.09375 544.941406 591.304688 544.582031 C 592.421875 542.691406 593.007812 540.527344 593.007812 538.320312 C 593.007812 536 592.363281 533.742188 591.136719 531.78125 " fill-opacity="1" fill-rule="nonzero"/></g><g clip-path="url(#964987f94d)"><path fill="#aae3e3" d="M 539.996094 902.8125 C 740.375 902.8125 902.8125 740.375 902.8125 539.996094 C 902.8125 339.617188 740.375 177.175781 539.996094 177.175781 C 339.617188 177.175781 177.175781 339.617188 177.175781 539.996094 C 177.175781 740.375 339.617188 902.8125 539.996094 902.8125 Z M 598.046875 559.347656 L 412.558594 559.347656 L 447.25 594.039062 L 419.886719 621.40625 L 352.160156 553.679688 C 344.601562 546.121094 344.601562 533.867188 352.160156 526.3125 L 419.886719 458.585938 L 447.25 485.953125 L 412.558594 520.644531 L 598.046875 520.644531 Z M 481.945312 365.84375 C 471.257812 365.84375 462.59375 374.507812 462.59375 385.195312 L 462.59375 443.242188 L 501.292969 443.242188 L 501.292969 404.542969 L 694.796875 404.542969 L 694.796875 675.449219 L 501.292969 675.449219 L 501.292969 636.746094 L 462.59375 636.746094 L 462.59375 694.796875 C 462.59375 705.484375 471.257812 714.148438 481.945312 714.148438 L 714.148438 714.148438 C 724.835938 714.148438 733.5 705.484375 733.5 694.796875 L 733.5 385.195312 C 733.5 374.507812 724.835938 365.84375 714.148438 365.84375 Z M 481.945312 365.84375 " fill-opacity="1" fill-rule="evenodd"/></g></svg>