<svg xmlns="http://www.w3.org/2000/svg" xmlns:xlink="http://www.w3.org/1999/xlink" width="1440" zoomAndPan="magnify" viewBox="0 0 1080 1079.999946" height="1440" preserveAspectRatio="xMidYMid meet" version="1.0"><defs><clipPath id="9b104eef77"><path d="M 570.527344 552.808594 L 577.125 552.808594 L 577.125 555.589844 L 570.527344 555.589844 Z M 570.527344 552.808594 " clip-rule="nonzero"/></clipPath><clipPath id="55a2923695"><path d="M 570 524.394531 L 577 524.394531 L 577 528 L 570 528 Z M 570 524.394531 " clip-rule="nonzero"/></clipPath><clipPath id="4444ddf65e"><path d="M 554.601562 531 L 560 531 L 560 547 L 554.601562 547 Z M 554.601562 531 " clip-rule="nonzero"/></clipPath><clipPath id="7018c66456"><path d="M 589 531.21875 L 592.851562 531.21875 L 592.851562 545.207031 L 589 545.207031 Z M 589 531.21875 " clip-rule="nonzero"/></clipPath><clipPath id="c82af16c12"><path d="M 473 805.09375 L 608.722656 805.09375 L 608.722656 862.640625 L 473 862.640625 Z M 473 805.09375 " clip-rule="nonzero"/></clipPath><clipPath id="2149c7490e"><path d="M 476 217.152344 L 605 217.152344 L 605 284 L 476 284 Z M 476 217.152344 " clip-rule="nonzero"/></clipPath><clipPath id="687b7e293b"><path d="M 142.648438 355 L 235 355 L 235 666 L 142.648438 666 Z M 142.648438 355 " clip-rule="nonzero"/></clipPath><clipPath id="f8d507818f"><path d="M 855 358.320312 L 937.417969 358.320312 L 937.417969 647 L 855 647 Z M 855 358.320312 " clip-rule="nonzero"/></clipPath></defs><g clip-path="url(#9b104eef77)"><path fill="#ffffff" d="M 575.929688 552.839844 L 570.585938 552.839844 C 570.851562 554.398438 572.207031 555.589844 573.839844 555.589844 C 575.472656 555.589844 576.832031 554.398438 577.09375 552.839844 L 575.929688 552.839844 " fill-opacity="1" fill-rule="nonzero"/></g><g clip-path="url(#55a2923695)"><path fill="#ffffff" d="M 571.925781 527.28125 C 572.546875 527.15625 573.183594 527.085938 573.839844 527.085938 C 574.496094 527.085938 575.132812 527.15625 575.753906 527.28125 C 575.953125 527.324219 576.152344 527.371094 576.347656 527.421875 C 576.542969 527.476562 576.734375 527.539062 576.925781 527.601562 C 576.890625 525.832031 575.519531 524.40625 573.839844 524.40625 C 572.160156 524.40625 570.789062 525.832031 570.753906 527.601562 C 570.945312 527.539062 571.136719 527.476562 571.332031 527.421875 C 571.527344 527.371094 571.726562 527.324219 571.925781 527.28125 " fill-opacity="1" fill-rule="nonzero"/></g><path fill="#ffffff" d="M 585.300781 548.539062 C 584.546875 547.824219 583.765625 547.089844 583.136719 546.074219 C 582.121094 544.429688 582.75 538.375 582.765625 538.203125 L 582.761719 538.160156 L 582.761719 538.109375 C 582.765625 537.996094 582.769531 537.894531 582.769531 537.792969 C 582.769531 533.65625 580.304688 530.125 576.867188 528.792969 C 576.683594 528.722656 576.496094 528.65625 576.304688 528.597656 C 576.117188 528.539062 575.925781 528.488281 575.734375 528.445312 C 575.125 528.304688 574.492188 528.226562 573.839844 528.226562 C 573.191406 528.226562 572.554688 528.304688 571.945312 528.445312 C 571.753906 528.488281 571.5625 528.539062 571.375 528.597656 C 571.1875 528.65625 570.996094 528.722656 570.8125 528.792969 C 567.375 530.125 564.914062 533.65625 564.914062 537.792969 C 564.914062 537.894531 564.914062 537.996094 564.917969 538.109375 L 564.917969 538.160156 L 564.914062 538.203125 C 564.929688 538.386719 565.558594 544.433594 564.542969 546.074219 C 563.914062 547.089844 563.132812 547.824219 562.378906 548.539062 C 562.003906 548.894531 561.574219 549.59375 561.28125 550.328125 C 560.996094 551.050781 560.953125 551.515625 560.976562 551.699219 L 586.761719 551.699219 C 586.792969 551.535156 586.753906 551.070312 586.441406 550.328125 C 586.132812 549.605469 585.6875 548.902344 585.300781 548.539062 " fill-opacity="1" fill-rule="nonzero"/><path fill="#ffffff" d="M 561.5625 543.308594 C 561.988281 543.007812 562.085938 542.421875 561.785156 541.996094 C 561.015625 540.921875 560.613281 539.652344 560.613281 538.328125 C 560.613281 537.0625 560.984375 535.84375 561.683594 534.796875 C 561.976562 534.367188 561.859375 533.785156 561.429688 533.492188 C 561 533.203125 560.414062 533.316406 560.125 533.75 C 559.214844 535.105469 558.730469 536.6875 558.730469 538.328125 C 558.730469 540.046875 559.257812 541.691406 560.253906 543.089844 C 560.4375 543.347656 560.726562 543.484375 561.019531 543.484375 C 561.207031 543.484375 561.398438 543.425781 561.5625 543.308594 " fill-opacity="1" fill-rule="nonzero"/><g clip-path="url(#4444ddf65e)"><path fill="#ffffff" d="M 556.882812 538.328125 C 556.882812 536.378906 557.441406 534.488281 558.496094 532.859375 C 558.839844 532.332031 558.6875 531.625 558.160156 531.285156 C 557.632812 530.941406 556.925781 531.089844 556.582031 531.621094 C 555.289062 533.617188 554.601562 535.9375 554.601562 538.328125 C 554.601562 540.957031 555.417969 543.46875 556.964844 545.589844 C 557.1875 545.894531 557.535156 546.058594 557.886719 546.058594 C 558.117188 546.058594 558.355469 545.988281 558.554688 545.839844 C 559.066406 545.46875 559.175781 544.757812 558.804688 544.246094 C 557.546875 542.519531 556.882812 540.472656 556.882812 538.328125 " fill-opacity="1" fill-rule="nonzero"/></g><path fill="#ffffff" d="M 586.113281 533.40625 C 585.683594 533.703125 585.578125 534.289062 585.875 534.714844 C 586.609375 535.777344 587 537.023438 587 538.320312 C 587 539.582031 586.632812 540.796875 585.933594 541.839844 C 585.644531 542.273438 585.761719 542.855469 586.191406 543.144531 C 586.351562 543.253906 586.535156 543.304688 586.714844 543.304688 C 587.015625 543.304688 587.316406 543.15625 587.496094 542.886719 C 588.402344 541.535156 588.878906 539.957031 588.878906 538.320312 C 588.878906 536.640625 588.375 535.023438 587.417969 533.644531 C 587.125 533.21875 586.539062 533.113281 586.113281 533.40625 " fill-opacity="1" fill-rule="nonzero"/><g clip-path="url(#7018c66456)"><path fill="#ffffff" d="M 591.136719 531.78125 C 590.804688 531.25 590.101562 531.085938 589.566406 531.421875 C 589.03125 531.753906 588.871094 532.457031 589.203125 532.992188 C 590.203125 534.585938 590.730469 536.429688 590.730469 538.320312 C 590.730469 540.121094 590.25 541.886719 589.34375 543.425781 C 589.023438 543.96875 589.203125 544.667969 589.746094 544.984375 C 589.929688 545.09375 590.125 545.144531 590.324219 545.144531 C 590.714844 545.144531 591.09375 544.941406 591.304688 544.582031 C 592.421875 542.691406 593.007812 540.527344 593.007812 538.320312 C 593.007812 536 592.363281 533.742188 591.136719 531.78125 " fill-opacity="1" fill-rule="nonzero"/></g><g clip-path="url(#c82af16c12)"><path fill="#aae3e3" d="M 583.957031 805.757812 L 473.410156 805.757812 C 478.863281 838 506.964844 862.640625 540.734375 862.640625 C 574.5 862.640625 602.609375 838 608.054688 805.757812 L 583.957031 805.757812 " fill-opacity="1" fill-rule="nonzero"/></g><g clip-path="url(#2149c7490e)"><path fill="#aae3e3" d="M 501.109375 276.859375 C 513.945312 274.21875 527.1875 272.820312 540.734375 272.820312 C 554.28125 272.820312 567.527344 274.21875 580.355469 276.859375 C 584.484375 277.710938 588.574219 278.671875 592.613281 279.78125 C 596.65625 280.882812 600.648438 282.132812 604.597656 283.484375 C 603.867188 246.863281 575.507812 217.3125 540.734375 217.3125 C 505.957031 217.3125 477.597656 246.863281 476.867188 283.484375 C 480.816406 282.132812 484.8125 280.882812 488.859375 279.78125 C 492.894531 278.671875 496.980469 277.710938 501.109375 276.859375 " fill-opacity="1" fill-rule="nonzero"/></g><path fill="#aae3e3" d="M 777.902344 716.734375 C 762.277344 701.984375 746.125 686.738281 733.136719 665.757812 C 712.078125 631.734375 725.105469 506.421875 725.476562 502.882812 L 725.335938 501.921875 L 725.371094 500.878906 C 725.449219 498.585938 725.480469 496.457031 725.480469 494.390625 C 725.480469 408.78125 674.515625 335.703125 603.398438 308.136719 C 599.558594 306.652344 595.664062 305.296875 591.714844 304.078125 C 587.847656 302.890625 583.929688 301.835938 579.960938 300.914062 C 567.316406 297.972656 554.191406 296.410156 540.734375 296.410156 C 527.277344 296.410156 514.15625 297.972656 501.503906 300.914062 C 497.539062 301.835938 493.617188 302.890625 489.75 304.078125 C 485.800781 305.296875 481.90625 306.652344 478.074219 308.136719 C 406.949219 335.703125 355.984375 408.78125 355.984375 494.390625 C 355.984375 496.457031 356.019531 498.585938 356.09375 500.878906 L 356.128906 501.921875 L 355.988281 502.882812 C 356.382812 506.617188 369.371094 631.761719 348.332031 665.757812 C 335.34375 686.738281 319.1875 701.984375 303.5625 716.734375 C 295.800781 724.0625 286.882812 738.597656 280.851562 753.746094 C 274.910156 768.695312 274.027344 778.308594 274.566406 782.167969 L 808.121094 782.167969 C 808.800781 778.753906 808.011719 769.152344 801.476562 753.730469 C 795.152344 738.800781 785.898438 724.28125 777.902344 716.734375 " fill-opacity="1" fill-rule="nonzero"/><path fill="#aae3e3" d="M 286.683594 608.519531 C 295.433594 602.285156 297.476562 590.132812 291.242188 581.378906 C 275.386719 559.125 267 532.859375 267 505.421875 C 267 479.257812 274.683594 454 289.207031 432.390625 C 295.203125 423.472656 292.835938 411.382812 283.917969 405.390625 C 275.003906 399.394531 262.90625 401.757812 256.914062 410.675781 C 238.050781 438.726562 228.085938 471.492188 228.085938 505.421875 C 228.085938 541 238.960938 575.074219 259.542969 603.960938 C 263.34375 609.292969 269.332031 612.128906 275.40625 612.128906 C 279.316406 612.128906 283.257812 610.957031 286.683594 608.519531 " fill-opacity="1" fill-rule="nonzero"/><g clip-path="url(#687b7e293b)"><path fill="#aae3e3" d="M 189.824219 505.421875 C 189.824219 465.074219 201.359375 425.949219 223.195312 392.273438 C 230.28125 381.34375 227.164062 366.738281 216.234375 359.652344 C 205.304688 352.5625 190.699219 355.683594 183.613281 366.613281 C 156.816406 407.945312 142.648438 455.949219 142.648438 505.421875 C 142.648438 559.867188 159.539062 611.839844 191.5 655.714844 C 196.121094 662.050781 203.296875 665.414062 210.585938 665.414062 C 215.398438 665.414062 220.261719 663.941406 224.449219 660.890625 C 234.976562 653.222656 237.296875 638.464844 229.625 627.941406 C 203.585938 592.183594 189.824219 549.820312 189.824219 505.421875 " fill-opacity="1" fill-rule="nonzero"/></g><path fill="#aae3e3" d="M 794.675781 403.609375 C 785.84375 409.738281 783.652344 421.859375 789.777344 430.691406 C 805.015625 452.648438 813.066406 478.449219 813.066406 505.300781 C 813.066406 531.378906 805.4375 556.5625 791 578.125 C 785.015625 587.054688 787.410156 599.136719 796.339844 605.113281 C 799.664062 607.339844 803.425781 608.40625 807.148438 608.40625 C 813.421875 608.40625 819.578125 605.382812 823.335938 599.773438 C 842.074219 571.789062 851.984375 539.113281 851.984375 505.300781 C 851.984375 470.484375 841.53125 437.011719 821.753906 408.507812 C 815.628906 399.679688 803.507812 397.484375 794.675781 403.609375 " fill-opacity="1" fill-rule="nonzero"/><g clip-path="url(#f8d507818f)"><path fill="#aae3e3" d="M 898.6875 369.992188 C 891.78125 358.953125 877.230469 355.59375 866.183594 362.5 C 855.136719 369.410156 851.785156 383.964844 858.691406 395.011719 C 879.339844 428.011719 890.246094 466.152344 890.246094 505.300781 C 890.246094 542.523438 880.320312 579.046875 861.546875 610.914062 C 854.929688 622.132812 858.664062 636.59375 869.886719 643.203125 C 873.652344 645.421875 877.773438 646.472656 881.84375 646.472656 C 889.921875 646.472656 897.78125 642.320312 902.183594 634.859375 C 925.238281 595.746094 937.417969 550.941406 937.417969 505.300781 C 937.417969 457.292969 924.023438 410.507812 898.6875 369.992188 " fill-opacity="1" fill-rule="nonzero"/></g></svg>