<svg xmlns="http://www.w3.org/2000/svg" xmlns:xlink="http://www.w3.org/1999/xlink" width="1440" zoomAndPan="magnify" viewBox="0 0 1080 1079.999946" height="1440" preserveAspectRatio="xMidYMid meet" version="1.0"><defs><clipPath id="f236bb5a59"><path d="M 95.242188 95.242188 L 760 95.242188 L 760 760 L 95.242188 760 Z M 95.242188 95.242188 " clip-rule="nonzero"/></clipPath><clipPath id="0722a88436"><path d="M 694.53125 620.285156 L 711.78125 620.285156 L 711.78125 638.285156 L 694.53125 638.285156 Z M 694.53125 620.285156 " clip-rule="nonzero"/></clipPath></defs><path fill="#288181" d="M 605.230469 659.875 L 659.851562 605.25 L 770.753906 716.148438 L 716.128906 770.769531 Z M 605.230469 659.875 " fill-opacity="1" fill-rule="nonzero"/><path fill="#288181" d="M 945.894531 829.308594 C 970.027344 853.445312 970.027344 892.609375 945.894531 916.78125 L 916.746094 945.894531 C 892.578125 970.0625 853.445312 970.0625 829.308594 945.894531 L 673.117188 789.667969 C 648.949219 765.5 648.949219 726.367188 673.085938 702.230469 L 702.230469 673.085938 C 726.367188 648.949219 765.566406 648.949219 789.703125 673.085938 Z M 945.894531 829.308594 " fill-opacity="1" fill-rule="nonzero"/><g clip-path="url(#f236bb5a59)"><path fill="#288181" d="M 426.984375 94.835938 C 243.511719 94.835938 94.835938 243.511719 94.835938 426.984375 C 94.835938 610.460938 243.511719 759.167969 426.984375 759.167969 C 610.460938 759.167969 759.167969 610.460938 759.167969 426.984375 C 759.167969 243.511719 610.460938 94.835938 426.984375 94.835938 Z M 426.984375 697.695312 C 277.429688 697.695312 156.242188 576.539062 156.242188 426.984375 C 156.242188 277.429688 277.429688 156.277344 426.984375 156.277344 C 576.539062 156.277344 697.730469 277.429688 697.730469 426.984375 C 697.730469 576.539062 576.539062 697.695312 426.984375 697.695312 Z M 426.984375 697.695312 " fill-opacity="1" fill-rule="nonzero"/></g><path fill="#288181" d="M 495.09375 591.402344 C 362.601562 591.402344 255.121094 483.957031 255.121094 351.429688 C 255.121094 347.910156 255.496094 344.457031 255.664062 340.933594 C 238.164062 369.234375 227.90625 402.511719 227.90625 438.191406 C 227.90625 540.660156 310.976562 623.695312 413.410156 623.695312 C 452.984375 623.695312 489.542969 611.238281 519.703125 590.148438 C 511.613281 591.027344 503.386719 591.402344 495.09375 591.402344 Z M 495.09375 591.402344 " fill-opacity="1" fill-rule="nonzero"/><g clip-path="url(#0722a88436)"><path fill="#ffffff" d="M 711.761719 636.96875 L 707.414062 632.796875 C 708.707031 631.414062 709.414062 629.621094 709.414062 627.722656 C 709.414062 625.824219 708.636719 623.867188 707.234375 622.464844 C 705.828125 621.058594 703.960938 620.285156 701.976562 620.285156 C 699.988281 620.285156 698.121094 621.058594 696.714844 622.464844 C 695.308594 623.867188 694.539062 625.738281 694.539062 627.722656 C 694.539062 629.710938 695.308594 631.578125 696.714844 632.980469 C 698.121094 634.386719 699.988281 635.160156 701.976562 635.160156 C 703.472656 635.160156 704.902344 634.722656 706.117188 633.902344 L 710.585938 638.191406 C 710.742188 638.34375 710.953125 638.429688 711.171875 638.429688 C 711.394531 638.429688 711.625 638.335938 711.785156 638.167969 C 712.109375 637.832031 712.097656 637.292969 711.761719 636.96875 Z M 705.242188 632.605469 C 704.308594 633.230469 703.183594 633.597656 701.976562 633.597656 C 698.730469 633.597656 696.101562 630.96875 696.101562 627.722656 C 696.101562 624.480469 698.730469 621.847656 701.976562 621.847656 C 705.21875 621.847656 707.847656 624.480469 707.847656 627.722656 C 707.847656 629.332031 707.203125 630.789062 706.15625 631.851562 C 705.878906 632.132812 705.570312 632.386719 705.242188 632.605469 Z M 705.242188 632.605469 " fill-opacity="1" fill-rule="nonzero"/></g></svg>